<svg xmlns="http://www.w3.org/2000/svg" viewBox="0 0 200 200">
  <!-- 螢幕外框 -->
  <rect x="30" y="45" width="140" height="95" rx="8" fill="#FFF8DC" stroke="#8B4513" stroke-width="3"/>
  <!-- 螢幕內部 -->
  <rect x="40" y="55" width="120" height="70" rx="4" fill="#2F1810"/>
  <!-- 銅蛇標誌在螢幕中 -->
  <path d="M100 110 Q92 100 95 90 Q98 80 94 73 Q92 68 100 65 Q108 68 106 73 Q102 80 105 90 Q108 100 100 110"
        fill="none" stroke="#CD853F" stroke-width="4" stroke-linecap="round"/>
  <circle cx="100" cy="60" r="5" fill="#CD853F"/>
  <circle cx="98" cy="58" r="1.2" fill="#1a1a1a"/>
  <circle cx="102" cy="58" r="1.2" fill="#1a1a1a"/>
  <!-- 播放按鈕 -->
  <circle cx="100" cy="90" r="18" fill="rgba(205, 133, 63, 0.8)"/>
  <polygon points="94,82 94,98 108,90" fill="white"/>
  <!-- 底座 -->
  <rect x="85" y="140" width="30" height="8" rx="2" fill="#8B4513"/>
  <rect x="75" y="148" width="50" height="12" rx="3" fill="#A0522D"/>
  <!-- 十字架小標誌 -->
  <rect x="155" y="50" width="4" height="15" fill="#FFD700"/>
  <rect x="150" y="55" width="14" height="4" fill="#FFD700"/>
</svg>
